<svg width="22" height="22" viewBox="0 0 22 22" fill="none" xmlns="http://www.w3.org/2000/svg">
<path d="M2.44447 16.5L2.44447 19.5556" stroke="#10CD00" stroke-width="1.5" stroke-linecap="round" stroke-linejoin="round"/>
<path d="M12.8516 2.53909C9.21161 2.53909 6.2608 5.49401 6.2608 9.13909C6.2608 12.7842 9.21161 15.7391 12.8516 15.7391C16.4916 15.7391 19.4425 12.7842 19.4425 9.13909C19.4425 5.49401 16.4916 2.53909 12.8516 2.53909Z" stroke="#10CD00" stroke-width="1.5" stroke-linecap="round" stroke-linejoin="round"/>
<path d="M2.49342 19.4977L6.2609 15.721" stroke="#10CD00" stroke-width="1.5" stroke-linecap="round" stroke-linejoin="round"/>
<path d="M5.5 19.5556H2.44444" stroke="#10CD00" stroke-width="1.5" stroke-linecap="round" stroke-linejoin="round"/>
<path d="M12.8475 9.59741V9.23367V9.18166V8.55241V7.69074V7.00949L12.8383 7.01237V6.64574V6.59075C12.8383 6.58746 12.8389 6.58587 12.8392 6.58502C12.8397 6.58383 12.8406 6.58243 12.842 6.58106C12.8433 6.5797 12.8448 6.57883 12.8459 6.57833C12.8468 6.57797 12.8484 6.57741 12.8517 6.57741C12.8549 6.57741 12.8565 6.57797 12.8574 6.57833C12.8586 6.57883 12.86 6.5797 12.8613 6.58106C12.8627 6.58243 12.8636 6.58383 12.8641 6.58502C12.8644 6.58587 12.865 6.58746 12.865 6.59075V6.63657V7.05248L13.2739 7.12822C13.6801 7.20344 13.9998 7.38617 14.1862 7.60364L14.1861 7.60371L14.1932 7.61164C14.1936 7.61211 14.194 7.61253 14.1942 7.61289L14.1909 7.61752L14.1904 7.61838C14.1887 7.61838 14.1864 7.61812 14.1835 7.6172L13.5564 7.37179L12.8742 7.10484V7.83741V8.68074V9.05654L12.865 9.05365V9.73491V10.5966V11.2778L12.8742 11.2749V11.6324V11.6874C12.8742 11.6907 12.8736 11.6923 12.8732 11.6931C12.8727 11.6943 12.8719 11.6957 12.8705 11.6971C12.8691 11.6984 12.8677 11.6993 12.8666 11.6998C12.8657 11.7002 12.8641 11.7007 12.8608 11.7007C12.8575 11.7007 12.856 11.7002 12.8551 11.6998C12.8539 11.6993 12.8525 11.6984 12.8512 11.6971C12.8498 11.6957 12.8489 11.6943 12.8484 11.6931C12.8481 11.6923 12.8475 11.6907 12.8475 11.6874V11.6416V11.2257L12.4385 11.1499C12.0324 11.0747 11.7127 10.892 11.5263 10.6745L11.5264 10.6744L11.5193 10.6665C11.5191 10.6662 11.5188 10.666 11.5187 10.6658C11.5215 10.6628 11.5242 10.6607 11.5264 10.6593C11.5282 10.6598 11.5301 10.6603 11.5322 10.6609L11.5519 10.6666L11.5542 10.6672L12.1653 10.9064L12.8475 11.1733V10.4407V9.59741ZM12.1976 9.02941L12.4435 9.10668L12.4387 9.1058C11.6752 8.96412 11.3075 8.50709 11.3075 8.12158C11.3075 7.73297 11.6701 7.27828 12.4295 7.13735L12.4567 7.13232L12.1976 7.21375C11.9856 7.28037 11.7926 7.38103 11.6423 7.51178C11.5077 7.62889 11.3342 7.83719 11.3342 8.12158C11.3342 8.40597 11.5077 8.61427 11.6423 8.73138C11.7926 8.86212 11.9856 8.96279 12.1976 9.02941ZM13.1846 9.1541L13.2829 9.17235C14.0424 9.31328 14.405 9.76798 14.405 10.1566C14.405 10.5369 14.0577 10.9804 13.3311 11.1313L13.5149 11.0736C13.7269 11.007 13.9199 10.9063 14.0702 10.7756C14.2048 10.6585 14.3783 10.4502 14.3783 10.1657C14.3783 9.88133 14.2048 9.67303 14.0702 9.55593C13.9199 9.42519 13.7269 9.32453 13.5149 9.25791L13.1846 9.1541Z" fill="#0066F4" stroke="#10CD00"/>
</svg>
