<svg width="34" height="34" viewBox="0 0 34 34" fill="none" xmlns="http://www.w3.org/2000/svg">
<g clip-path="url(#clip0_1_3485)">
<path d="M22.3467 12.0765C22.2097 12.158 21.7531 12.4348 21.6286 12.5198L19.0543 14.1429C19.0412 14.1518 19.0259 14.1569 19.0101 14.1577C18.9943 14.1584 18.9786 14.1548 18.9647 14.1471L9.9699 10.9034C9.91331 10.8803 9.85238 10.8697 9.79132 10.8725C9.73027 10.8753 9.67054 10.8913 9.61628 10.9194L8.53282 11.5636L15.3307 16.302C15.3466 16.3127 15.3594 16.3273 15.3678 16.3444C15.3763 16.3616 15.3802 16.3806 15.3791 16.3997C15.378 16.4187 15.372 16.4372 15.3616 16.4532C15.3512 16.4693 15.3369 16.4823 15.3199 16.4911L10.4598 19.4786C10.4097 19.5105 10.3528 19.5301 10.2937 19.5359C10.2346 19.5416 10.175 19.5334 10.1196 19.5118L7.5509 18.5849C7.3366 18.4996 7.05986 18.5496 6.86283 18.6668L6.10291 19.1185C6.05093 19.1494 6.08757 19.1936 6.1309 19.2344L8.64108 21.6369C8.79312 21.7551 8.89493 21.9263 8.92613 22.1163L9.83142 25.4609C9.85436 25.5536 9.88233 25.5942 9.9746 25.5394L10.6966 25.1101C11.0246 24.9151 11.044 24.8458 11.0861 24.5351L11.5104 21.7906C11.5183 21.7319 11.5397 21.6757 11.573 21.6266C11.6063 21.5775 11.6504 21.5368 11.7021 21.5076L16.6292 18.7257C16.6472 18.7156 16.6673 18.71 16.6879 18.7094C16.7085 18.7088 16.7289 18.7133 16.7474 18.7224C16.7659 18.7315 16.7819 18.745 16.7939 18.7617C16.806 18.7784 16.8139 18.7978 16.8167 18.8182L17.731 27.0359L18.8044 26.3977C18.855 26.3636 18.8975 26.3189 18.9291 26.2667C18.9607 26.2145 18.9805 26.156 18.9873 26.0954L20.4478 16.641C20.4492 16.6075 20.5068 16.5568 20.5346 16.5403L23.1501 15.0781C23.2878 15.0071 23.7451 14.7407 23.8825 14.659C25.6663 13.5986 26.5029 12.4376 26.0255 11.6345C25.5481 10.8315 24.1357 11.013 22.3467 12.0765Z" stroke="#B167DB" stroke-width="1.5" stroke-linecap="round" stroke-linejoin="round"/>
</g>
<defs>
<clipPath id="clip0_1_3485">
<rect width="24" height="24" fill="white" transform="translate(0.552979 12.8174) rotate(-30.7313)"/>
</clipPath>
</defs>
</svg>
