<svg width="22" height="22" viewBox="0 0 22 22" fill="none" xmlns="http://www.w3.org/2000/svg">
<path d="M19.5555 5.5V2.44444" stroke="#B167DB" stroke-width="1.5" stroke-linecap="round" stroke-linejoin="round"/>
<path d="M9.14838 19.4609C12.7884 19.4609 15.7392 16.506 15.7392 12.8609C15.7392 9.21583 12.7884 6.26091 9.14838 6.26091C5.50836 6.26091 2.55754 9.21583 2.55754 12.8609C2.55754 16.506 5.50836 19.4609 9.14838 19.4609Z" stroke="#B167DB" stroke-width="1.5" stroke-linecap="round" stroke-linejoin="round"/>
<path d="M19.5066 2.50233L15.7391 6.279" stroke="#B167DB" stroke-width="1.5" stroke-linecap="round" stroke-linejoin="round"/>
<path d="M16.5 2.44444H19.5556" stroke="#B167DB" stroke-width="1.5" stroke-linecap="round" stroke-linejoin="round"/>
<path d="M9.15249 12.4026V12.7663V12.8183V13.4476V14.3093V14.9905L9.16167 14.9876V15.3543V15.4093C9.16167 15.4125 9.16111 15.4141 9.16075 15.415C9.16025 15.4162 9.15937 15.4176 9.15801 15.4189C9.15665 15.4203 9.15524 15.4212 9.15406 15.4217C9.1532 15.422 9.15162 15.4226 9.14834 15.4226C9.14506 15.4226 9.14347 15.422 9.14262 15.4217C9.14144 15.4212 9.14003 15.4203 9.13867 15.4189C9.13731 15.4176 9.13643 15.4162 9.13593 15.415C9.13557 15.4141 9.13501 15.4125 9.13501 15.4093V15.3634V14.9475L8.72605 14.8718C8.31986 14.7966 8.00018 14.6138 7.81378 14.3964L7.81386 14.3963L7.80677 14.3884C7.80635 14.3879 7.80602 14.3875 7.80575 14.3871L7.80905 14.3825L7.80963 14.3816C7.81131 14.3816 7.81362 14.3819 7.81647 14.3828L8.44363 14.6282L9.12583 14.8952V14.1626V13.3193V12.9435L9.13501 12.9463V12.2651V11.4034V10.7222L9.12583 10.7251V10.3676V10.3126C9.12583 10.3093 9.12639 10.3077 9.12676 10.3069C9.12725 10.3057 9.12813 10.3043 9.12949 10.3029C9.13085 10.3016 9.13226 10.3007 9.13344 10.3002C9.13429 10.2998 9.13588 10.2993 9.13916 10.2993C9.14244 10.2993 9.14403 10.2998 9.14489 10.3002C9.14607 10.3007 9.14747 10.3016 9.14884 10.3029C9.1502 10.3043 9.15107 10.3057 9.15157 10.3069C9.15193 10.3077 9.15249 10.3093 9.15249 10.3126V10.3584V10.7743L9.56145 10.8501C9.96763 10.9253 10.2873 11.108 10.4737 11.3255L10.4736 11.3256L10.4807 11.3335C10.4809 11.3338 10.4811 11.334 10.4813 11.3342C10.4784 11.3372 10.4758 11.3393 10.4735 11.3407C10.4718 11.3402 10.4699 11.3397 10.4678 11.3391L10.4481 11.3334L10.4458 11.3328L9.83469 11.0936L9.15249 10.8267V11.5593V12.4026ZM9.80241 12.9706L9.55654 12.8933L9.56127 12.8942C10.3248 13.0359 10.6925 13.4929 10.6925 13.8784C10.6925 14.267 10.3299 14.7217 9.57044 14.8626L9.54331 14.8677L9.80241 14.7863C10.0144 14.7196 10.2074 14.619 10.3577 14.4882C10.4923 14.3711 10.6658 14.1628 10.6658 13.8784C10.6658 13.594 10.4923 13.3857 10.3577 13.2686C10.2074 13.1379 10.0144 13.0372 9.80241 12.9706ZM8.81539 12.8459L8.71706 12.8276C7.9576 12.6867 7.59499 12.232 7.59499 11.8434C7.59499 11.4631 7.94224 11.0196 8.66886 10.8687L8.48509 10.9264C8.27312 10.993 8.08008 11.0937 7.92982 11.2244C7.79523 11.3415 7.62165 11.5498 7.62165 11.8343C7.62165 12.1187 7.79523 12.327 7.92982 12.4441C8.08008 12.5748 8.27312 12.6755 8.48509 12.7421L8.81539 12.8459Z" fill="#070707" stroke="#B167DB"/>
</svg>
